<?xml version="1.0" standalone="no"?>
<!DOCTYPE svg PUBLIC "-//W3C//DTD SVG 20010904//EN"
 "http://www.w3.org/TR/2001/REC-SVG-20010904/DTD/svg10.dtd">
<svg version="1.0" xmlns="http://www.w3.org/2000/svg"
 width="1024.000000pt" height="1024.000000pt" viewBox="0 0 1024.000000 1024.000000"
 preserveAspectRatio="xMidYMid meet">

<g transform="translate(0.000000,1024.000000) scale(0.100000,-0.100000)"
fill="#000000" stroke="none">
<path d="M0 5120 l0 -5120 5120 0 5120 0 0 5120 0 5120 -5120 0 -5120 0 0
-5120z m9005 3428 c-3 -35 -21 -238 -40 -453 -20 -214 -48 -514 -65 -665 -16
-151 -32 -306 -36 -345 -3 -38 -10 -78 -15 -87 -5 -9 -53 -41 -107 -71 -659
-365 -1301 -731 -1465 -834 l-38 -24 34 -42 c128 -159 217 -418 217 -633 0
-149 -55 -364 -127 -494 -162 -293 -473 -512 -790 -555 -29 -4 -53 -9 -53 -11
0 -7 621 -714 627 -714 9 0 405 285 523 376 227 176 382 358 486 569 140 287
237 745 328 1542 l41 368 65 34 c36 18 105 55 153 81 l88 48 -6 -31 c-3 -18
-21 -178 -40 -357 -98 -891 -175 -1301 -310 -1651 -116 -300 -290 -538 -554
-758 -58 -49 -249 -195 -423 -324 -429 -320 -1331 -1028 -1688 -1326 -297
-248 -522 -441 -592 -508 l-78 -75 -44 39 c-24 21 -95 83 -157 138 -286 253
-755 638 -1229 1009 -146 114 -323 254 -395 310 -165 130 -417 321 -660 499
-533 393 -724 624 -888 1078 -115 315 -171 600 -252 1269 -20 162 -45 379 -55
482 -10 103 -22 192 -25 198 -10 15 4 12 33 -9 15 -10 82 -46 150 -80 76 -38
122 -67 122 -77 0 -80 87 -747 131 -1004 111 -652 222 -941 464 -1213 144
-163 275 -271 607 -503 98 -68 179 -124 181 -124 9 0 256 281 414 471 94 113
178 211 187 218 23 19 20 31 -8 31 -52 0 -226 52 -313 94 -275 133 -461 343
-559 628 -72 213 -72 473 0 686 31 90 94 212 146 279 l39 52 -167 99 c-253
150 -474 276 -801 459 -391 218 -578 330 -624 373 l-38 35 -15 160 c-8 88 -23
234 -34 325 -10 91 -33 309 -50 485 -17 176 -37 378 -45 450 -8 71 -12 131
-10 133 11 11 325 -185 850 -530 105 -69 282 -183 395 -255 113 -71 293 -188
400 -258 107 -71 325 -211 484 -313 484 -308 1124 -723 1450 -940 169 -113
314 -205 320 -205 7 0 237 148 512 330 274 181 636 419 804 528 685 445 912
593 1060 690 85 56 231 150 324 210 93 59 341 221 550 359 210 139 420 275
467 304 48 29 97 61 110 72 13 10 28 19 32 20 4 0 5 -28 2 -62z"/>
<path d="M1600 8001 c0 -14 11 -125 25 -246 13 -121 29 -267 35 -325 6 -58 15
-140 21 -182 l11 -78 187 -103 c102 -57 218 -121 256 -142 634 -345 1388 -793
2437 -1447 l287 -179 -6 -32 c-57 -305 -190 -529 -425 -717 -56 -46 -104 -86
-105 -89 -1 -3 33 -28 75 -56 228 -148 463 -401 680 -733 l61 -93 67 103 c198
306 469 600 686 743 32 21 55 41 53 46 -3 4 -40 32 -83 62 -155 109 -287 286
-370 497 -39 98 -78 258 -66 270 20 20 906 569 1274 790 562 338 722 430 1550
895 331 187 304 168 312 211 11 55 106 818 103 822 -3 3 -343 -216 -1063 -684
-225 -147 -973 -629 -1380 -890 -129 -82 -412 -267 -630 -411 -365 -242 -400
-263 -440 -263 -24 0 -57 7 -75 16 -18 9 -176 112 -352 229 -176 117 -448 294
-605 393 -157 99 -357 227 -445 285 -381 248 -582 378 -930 599 -203 129 -509
325 -680 436 -170 110 -345 223 -387 250 l-78 50 0 -27z m3634 -3058 c47 -45
86 -88 86 -95 0 -7 -16 -42 -35 -78 -20 -36 -58 -109 -85 -162 -28 -54 -56
-98 -63 -98 -16 0 -190 324 -185 345 3 16 179 175 190 172 3 -1 45 -39 92 -84z"/>
<path d="M3263 5916 c-71 -80 -134 -202 -165 -318 -17 -65 -22 -109 -21 -203
1 -143 22 -233 85 -363 35 -73 58 -103 137 -182 81 -81 111 -103 191 -143 129
-64 209 -80 375 -74 210 8 332 62 485 216 71 71 94 102 132 181 74 150 78 135
-62 223 l-119 75 -22 -70 c-67 -211 -237 -338 -455 -338 -179 0 -341 106 -425
276 -30 60 -33 77 -37 178 -4 95 -1 120 18 175 24 73 65 136 121 191 l39 38
-72 42 c-40 24 -99 60 -130 81 l-56 37 -19 -22z"/>
<path d="M6858 5843 l-128 -76 57 -61 c204 -220 158 -552 -98 -717 -132 -84
-325 -92 -469 -19 -96 49 -194 171 -224 280 l-17 61 -37 -23 c-63 -38 -197
-120 -200 -123 -8 -7 55 -147 94 -208 140 -216 343 -327 603 -327 336 0 628
217 731 545 16 49 24 106 27 190 6 140 -13 240 -71 360 -33 70 -119 195 -133
195 -5 0 -65 -35 -135 -77z"/>
<path d="M3782 5611 c-44 -12 -105 -53 -135 -93 -80 -108 -50 -260 65 -331 40
-25 58 -29 113 -29 55 0 73 4 113 29 150 92 150 327 1 404 -46 23 -111 31
-157 20z"/>
<path d="M6365 5596 c-50 -19 -117 -91 -133 -143 -41 -137 16 -251 144 -289
84 -24 177 0 236 63 99 104 66 288 -64 354 -53 27 -132 33 -183 15z"/>
<path d="M6070 4205 c-133 -97 -328 -278 -435 -406 -40 -48 -107 -139 -148
-201 -71 -107 -256 -424 -322 -550 -29 -57 -45 -72 -45 -44 0 23 -130 269
-229 436 -168 279 -286 431 -447 576 -98 88 -249 202 -316 239 l-50 27 -77
-83 c-192 -209 -653 -772 -640 -783 2 -2 80 -60 172 -130 93 -70 259 -197 369
-282 110 -85 201 -154 203 -152 1 2 51 98 111 213 l109 210 6 -245 c3 -135 7
-272 8 -306 l1 -61 163 -135 c89 -74 269 -226 400 -336 l237 -202 104 92 c57
51 235 203 395 338 l290 245 1 155 c0 85 3 219 7 297 l6 142 41 -72 c117 -202
191 -327 196 -327 3 0 33 23 67 50 71 58 595 465 638 496 l29 20 -150 185
c-280 345 -562 678 -574 677 -3 0 -57 -37 -120 -83z"/>
</g>
</svg>
